# xmcd
#
# Track frame offsets:
#	150
#	16232
#	35320
#	54652
#	70965
#	85925
#	103780
#	121835
#	135555
#	152372
#
# Disc length: 2257 seconds
#
# Revision: 0
# Processed by: cddbd v1.5.1PL0 Copyright (c) Steve Scherf et al.
# Submitted via: EasyCDDAExtractor 8.2.2.1
#
DISCID=7708cf0a
DTITLE=Los Pinguos - Live in Los Angeles
DYEAR=2005
DGENRE=Latin
TTITLE0=Maldito Corazón
TTITLE1=Alegría
TTITLE2=Esperanza
TTITLE3=Así es mi Vida
TTITLE4=Mi Manera de Amarte
TTITLE5=Camino Bueno
TTITLE6=La Mamá
TTITLE7=La Cantina
TTITLE8=Caballito
TTITLE9=Vengo
EXTD=
EXTT0=
EXTT1=
EXTT2=
EXTT3=
EXTT4=
EXTT5=
EXTT6=
EXTT7=
EXTT8=
EXTT9=
PLAYORDER=
